HIERARCHY
ROOT mixamorig:Hips
{
	OFFSET -0.000008 104.274872 1.554316
	CHANNELS 6 Xposition Yposition Zposition Xrotation Yrotation Zrotation
	JOINT mixamorig:Spine
	{
		OFFSET -0.000005 10.181595 0.131519
		CHANNELS 6 Xposition Yposition Zposition Xrotation Yrotation Zrotation
		JOINT mixamorig:Spine1
		{
			OFFSET -0.000000 9.893959 -1.470707
			CHANNELS 6 Xposition Yposition Zposition Xrotation Yrotation Zrotation
			JOINT mixamorig:Spine2
			{
				OFFSET -0.000000 9.220757 -1.370641
				CHANNELS 6 Xposition Yposition Zposition Xrotation Yrotation Zrotation
				JOINT mixamorig:Neck
				{
					OFFSET 0.000001 16.740417 -2.049036
					CHANNELS 6 Xposition Yposition Zposition Xrotation Yrotation Zrotation
					JOINT mixamorig:Head
					{
						OFFSET 0.000000 9.617874 1.685006
						CHANNELS 6 Xposition Yposition Zposition Xrotation Yrotation Zrotation
						JOINT mixamorig:HeadTop_End
						{
							OFFSET 0.000002 22.037354 7.501101
							CHANNELS 6 Xposition Yposition Zposition Xrotation Yrotation Zrotation
							End Site
							{
								OFFSET 0.000168 2310.654297 -282.823242
							}
						}
					}
				}
				JOINT mixamorig:RightShoulder
				{
					OFFSET -4.569970 11.014908 -2.160885
					CHANNELS 6 Xposition Yposition Zposition Xrotation Yrotation Zrotation
					JOINT mixamorig:RightArm
					{
						OFFSET -10.592851 -0.524811 -2.232101
						CHANNELS 6 Xposition Yposition Zposition Xrotation Yrotation Zrotation
						JOINT mixamorig:RightForeArm
						{
							OFFSET -27.841511 0.000031 -0.000004
							CHANNELS 6 Xposition Yposition Zposition Xrotation Yrotation Zrotation
							JOINT mixamorig:RightHand
							{
								OFFSET -28.328831 -0.000015 0.000015
								CHANNELS 6 Xposition Yposition Zposition Xrotation Yrotation Zrotation
								JOINT mixamorig:RightHandThumb1
								{
									OFFSET -2.464806 -1.573990 2.681852
									CHANNELS 6 Xposition Yposition Zposition Xrotation Yrotation Zrotation
									JOINT mixamorig:RightHandThumb2
									{
										OFFSET -3.215179 -1.872803 1.924282
										CHANNELS 6 Xposition Yposition Zposition Xrotation Yrotation Zrotation
										JOINT mixamorig:RightHandThumb3
										{
											OFFSET -2.654831 -1.527969 1.512609
											CHANNELS 6 Xposition Yposition Zposition Xrotation Yrotation Zrotation
											JOINT mixamorig:RightHandThumb4
											{
												OFFSET -2.018814 -1.152008 1.108052
												CHANNELS 6 Xposition Yposition Zposition Xrotation Yrotation Zrotation
												End Site
												{
													OFFSET -188.809540 -114.533607 132.431396
												}
											}
										}
									}
								}
								JOINT mixamorig:RightHandIndex1
								{
									OFFSET -9.108284 -0.517868 2.259835
									CHANNELS 6 Xposition Yposition Zposition Xrotation Yrotation Zrotation
									JOINT mixamorig:RightHandIndex2
									{
										OFFSET -3.699989 0.000000 0.001215
										CHANNELS 6 Xposition Yposition Zposition Xrotation Yrotation Zrotation
										JOINT mixamorig:RightHandIndex3
										{
											OFFSET -2.850006 0.000031 -0.000522
											CHANNELS 6 Xposition Yposition Zposition Xrotation Yrotation Zrotation
											JOINT mixamorig:RightHandIndex4
											{
												OFFSET -2.772186 -0.000015 -0.000020
												CHANNELS 6 Xposition Yposition Zposition Xrotation Yrotation Zrotation
												End Site
												{
													OFFSET -277.218445 0.000000 -0.050231
												}
											}
										}
									}
								}
								JOINT mixamorig:RightHandMiddle1
								{
									OFFSET -9.532516 -0.000031 -0.000023
									CHANNELS 6 Xposition Yposition Zposition Xrotation Yrotation Zrotation
									JOINT mixamorig:RightHandMiddle2
									{
										OFFSET -3.700005 -0.000015 0.003713
										CHANNELS 6 Xposition Yposition Zposition Xrotation Yrotation Zrotation
										JOINT mixamorig:RightHandMiddle3
										{
											OFFSET -2.949974 0.000015 -0.002054
											CHANNELS 6 Xposition Yposition Zposition Xrotation Yrotation Zrotation
											JOINT mixamorig:RightHandMiddle4
											{
												OFFSET -2.946640 0.000000 -0.000156
												CHANNELS 6 Xposition Yposition Zposition Xrotation Yrotation Zrotation
												End Site
												{
													OFFSET -294.664337 0.000000 -0.113670
												}
											}
										}
									}
								}
								JOINT mixamorig:RightHandRing1
								{
									OFFSET -9.103600 -0.043076 -1.865134
									CHANNELS 6 Xposition Yposition Zposition Xrotation Yrotation Zrotation
									JOINT mixamorig:RightHandRing2
									{
										OFFSET -3.379288 0.000000 -0.001055
										CHANNELS 6 Xposition Yposition Zposition Xrotation Yrotation Zrotation
										JOINT mixamorig:RightHandRing3
										{
											OFFSET -2.889687 -0.000015 0.000379
											CHANNELS 6 Xposition Yposition Zposition Xrotation Yrotation Zrotation
											JOINT mixamorig:RightHandRing4
											{
												OFFSET -2.638809 -0.000015 0.000941
												CHANNELS 6 Xposition Yposition Zposition Xrotation Yrotation Zrotation
												End Site
												{
													OFFSET -263.880371 0.000000 0.516020
												}
											}
										}
									}
								}
								JOINT mixamorig:RightHandPinky1
								{
									OFFSET -8.076683 -0.486710 -3.806280
									CHANNELS 6 Xposition Yposition Zposition Xrotation Yrotation Zrotation
									JOINT mixamorig:RightHandPinky2
									{
										OFFSET -3.600014 -0.000015 -0.003747
										CHANNELS 6 Xposition Yposition Zposition Xrotation Yrotation Zrotation
										JOINT mixamorig:RightHandPinky3
										{
											OFFSET -2.099983 0.000000 -0.005739
											CHANNELS 6 Xposition Yposition Zposition Xrotation Yrotation Zrotation
											JOINT mixamorig:RightHandPinky4
											{
												OFFSET -2.115768 -0.000031 -0.003680
												CHANNELS 6 Xposition Yposition Zposition Xrotation Yrotation Zrotation
												End Site
												{
													OFFSET -211.577087 0.000000 -0.350686
												}
											}
										}
									}
								}
							}
						}
					}
				}
				JOINT mixamorig:LeftShoulder
				{
					OFFSET 4.570447 11.014725 -2.160855
					CHANNELS 6 Xposition Yposition Zposition Xrotation Yrotation Zrotation
					JOINT mixamorig:LeftArm
					{
						OFFSET 10.592371 -0.524597 -2.232119
						CHANNELS 6 Xposition Yposition Zposition Xrotation Yrotation Zrotation
						JOINT mixamorig:LeftForeArm
						{
							OFFSET 27.841532 -0.000031 0.000026
							CHANNELS 6 Xposition Yposition Zposition Xrotation Yrotation Zrotation
							JOINT mixamorig:LeftHand
							{
								OFFSET 28.328846 -0.000061 0.000022
								CHANNELS 6 Xposition Yposition Zposition Xrotation Yrotation Zrotation
								JOINT mixamorig:LeftHandThumb1
								{
									OFFSET 2.466141 -1.576172 2.681732
									CHANNELS 6 Xposition Yposition Zposition Xrotation Yrotation Zrotation
									JOINT mixamorig:LeftHandThumb2
									{
										OFFSET 3.217812 -1.872070 1.916482
										CHANNELS 6 Xposition Yposition Zposition Xrotation Yrotation Zrotation
										JOINT mixamorig:LeftHandThumb3
										{
											OFFSET 2.656029 -1.528778 1.514513
											CHANNELS 6 Xposition Yposition Zposition Xrotation Yrotation Zrotation
											JOINT mixamorig:LeftHandThumb4
											{
												OFFSET 2.020889 -1.154053 1.115139
												CHANNELS 6 Xposition Yposition Zposition Xrotation Yrotation Zrotation
												End Site
												{
													OFFSET 190.885437 -115.081749 130.048782
												}
											}
										}
									}
								}
								JOINT mixamorig:LeftHandIndex1
								{
									OFFSET 9.109314 -0.518021 2.259871
									CHANNELS 6 Xposition Yposition Zposition Xrotation Yrotation Zrotation
									JOINT mixamorig:LeftHandIndex2
									{
										OFFSET 3.699989 0.000000 -0.000322
										CHANNELS 6 Xposition Yposition Zposition Xrotation Yrotation Zrotation
										JOINT mixamorig:LeftHandIndex3
										{
											OFFSET 2.850006 0.000000 0.000352
											CHANNELS 6 Xposition Yposition Zposition Xrotation Yrotation Zrotation
											JOINT mixamorig:LeftHandIndex4
											{
												OFFSET 2.774864 -0.000031 -0.000027
												CHANNELS 6 Xposition Yposition Zposition Xrotation Yrotation Zrotation
												End Site
												{
													OFFSET 277.486267 0.000000 -0.009857
												}
											}
										}
									}
								}
								JOINT mixamorig:LeftHandMiddle1
								{
									OFFSET 9.533394 0.000061 0.000044
									CHANNELS 6 Xposition Yposition Zposition Xrotation Yrotation Zrotation
									JOINT mixamorig:LeftHandMiddle2
									{
										OFFSET 3.699989 -0.000015 -0.000231
										CHANNELS 6 Xposition Yposition Zposition Xrotation Yrotation Zrotation
										JOINT mixamorig:LeftHandMiddle3
										{
											OFFSET 2.949997 -0.000015 -0.000059
											CHANNELS 6 Xposition Yposition Zposition Xrotation Yrotation Zrotation
											JOINT mixamorig:LeftHandMiddle4
											{
												OFFSET 2.952896 0.000031 0.000063
												CHANNELS 6 Xposition Yposition Zposition Xrotation Yrotation Zrotation
												End Site
												{
													OFFSET 295.289337 0.000000 0.022810
												}
											}
										}
									}
								}
								JOINT mixamorig:LeftHandRing1
								{
									OFFSET 9.104523 -0.042999 -1.865074
									CHANNELS 6 Xposition Yposition Zposition Xrotation Yrotation Zrotation
									JOINT mixamorig:LeftHandRing2
									{
										OFFSET 3.150009 -0.000031 0.000043
										CHANNELS 6 Xposition Yposition Zposition Xrotation Yrotation Zrotation
										JOINT mixamorig:LeftHandRing3
										{
											OFFSET 2.949982 -0.000015 0.000040
											CHANNELS 6 Xposition Yposition Zposition Xrotation Yrotation Zrotation
											JOINT mixamorig:LeftHandRing4
											{
												OFFSET 2.644348 0.000000 0.000057
												CHANNELS 6 Xposition Yposition Zposition Xrotation Yrotation Zrotation
												End Site
												{
													OFFSET 264.434631 0.000000 0.012105
												}
											}
										}
									}
								}
								JOINT mixamorig:LeftHandPinky1
								{
									OFFSET 8.077789 -0.486847 -3.806259
									CHANNELS 6 Xposition Yposition Zposition Xrotation Yrotation Zrotation
									JOINT mixamorig:LeftHandPinky2
									{
										OFFSET 3.599953 0.000031 0.014727
										CHANNELS 6 Xposition Yposition Zposition Xrotation Yrotation Zrotation
										JOINT mixamorig:LeftHandPinky3
										{
											OFFSET 2.100021 0.000015 0.007705
											CHANNELS 6 Xposition Yposition Zposition Xrotation Yrotation Zrotation
											JOINT mixamorig:LeftHandPinky4
											{
												OFFSET 2.125504 0.000031 0.007517
												CHANNELS 6 Xposition Yposition Zposition Xrotation Yrotation Zrotation
												End Site
												{
													OFFSET 212.550781 0.000000 0.625752
												}
											}
										}
									}
								}
							}
						}
					}
				}
			}
		}
	}
	JOINT mixamorig:RightUpLeg
	{
		OFFSET -8.207787 -6.751648 -1.599560
		CHANNELS 6 Xposition Yposition Zposition Xrotation Yrotation Zrotation
		JOINT mixamorig:RightLeg
		{
			OFFSET -0.000002 -44.370117 0.345942
			CHANNELS 6 Xposition Yposition Zposition Xrotation Yrotation Zrotation
			JOINT mixamorig:RightFoot
			{
				OFFSET 0.000003 -44.423679 -3.043532
				CHANNELS 6 Xposition Yposition Zposition Xrotation Yrotation Zrotation
				JOINT mixamorig:RightToeBase
				{
					OFFSET -0.000002 -8.728671 10.710558
					CHANNELS 6 Xposition Yposition Zposition Xrotation Yrotation Zrotation
					JOINT mixamorig:RightToe_End
					{
						OFFSET -0.000001 -0.000679 9.278119
						CHANNELS 6 Xposition Yposition Zposition Xrotation Yrotation Zrotation
						End Site
						{
							OFFSET 0.000000 -0.067690 927.812134
						}
					}
				}
			}
		}
	}
	JOINT mixamorig:LeftUpLeg
	{
		OFFSET 8.207793 -6.751686 -1.599556
		CHANNELS 6 Xposition Yposition Zposition Xrotation Yrotation Zrotation
		JOINT mixamorig:LeftLeg
		{
			OFFSET -0.000004 -44.370014 0.346954
			CHANNELS 6 Xposition Yposition Zposition Xrotation Yrotation Zrotation
			JOINT mixamorig:LeftFoot
			{
				OFFSET -0.000001 -44.423672 -3.044401
				CHANNELS 6 Xposition Yposition Zposition Xrotation Yrotation Zrotation
				JOINT mixamorig:LeftToeBase
				{
					OFFSET -0.000002 -8.728669 10.710558
					CHANNELS 6 Xposition Yposition Zposition Xrotation Yrotation Zrotation
					JOINT mixamorig:LeftToe_End
					{
						OFFSET -0.000003 -0.000679 9.278133
						CHANNELS 6 Xposition Yposition Zposition Xrotation Yrotation Zrotation
						End Site
						{
							OFFSET 0.000000 -0.068021 927.813477
						}
					}
				}
			}
		}
	}
}
MOTION
Frames: 3
Frame Time: 0.033333
0.000006 104.270477 1.554256 0.000010 0.000003 -0.000113 -0.000005 10.181587 0.131522 0.000001 -0.000003 0.000084 -0.000000 9.893967 -1.470711 0.000001 0.000000 -0.000000 -0.000000 9.220802 -1.370642 0.000000 -0.000000 -0.000000 0.000001 16.740433 -2.049030 0.000000 -0.000000 -0.000000 0.000000 9.617859 1.685014 0.000000 0.000000 0.000000 0.000002 22.037384 7.501101 0.000000 -0.000000 0.000000 -4.569968 11.014880 -2.160881 0.000008 0.000001 -0.000038 -10.592873 -0.524771 -2.231898 75.381601 30.439616 -23.742204 -27.841516 0.000016 0.000555 -55.636972 107.751172 71.729684 -28.328825 0.000007 0.000028 -0.000324 -0.000044 0.000006 -2.464435 -1.573821 2.682378 -43.022573 -165.816666 3.351687 -3.215283 -1.872673 1.924704 159.815020 27.914778 -17.548877 -2.654939 -1.527922 1.513098 148.078392 25.381977 -49.379618 -2.018834 -1.152001 1.108056 -0.000003 -0.000003 0.000002 -9.108389 -0.517574 2.260115 94.158420 18.568619 -19.991636 -3.700075 0.000306 0.001497 90.950676 16.095831 -16.336860 -2.850096 0.000351 -0.000287 89.775002 13.120888 -13.068962 -2.772152 -0.000016 -0.000019 -0.000000 0.000000 -0.000001 -9.532581 0.000260 0.000214 87.324173 15.803150 -15.226143 -3.700077 0.000345 0.003953 88.382518 13.158373 -12.701944 -2.950076 0.000315 -0.001850 88.178835 12.924417 -12.516282 -2.946631 -0.000011 -0.000155 0.000001 0.000000 -0.000000 -9.103695 -0.042768 -1.864904 83.347617 17.085080 -15.191632 -3.379325 0.000309 -0.000839 87.010941 10.700030 -10.175513 -2.889754 0.000346 0.000605 89.704631 7.914028 -7.919370 -2.638823 0.000013 0.000943 0.000003 -0.000000 -0.000001 -8.076741 -0.486392 -3.806103 73.231963 16.037571 -11.839503 -3.600033 0.000266 -0.003578 77.481727 8.785151 -6.765721 -2.100020 0.000307 -0.005540 79.040288 6.111559 -4.860426 -2.115755 -0.000027 -0.003678 -0.000001 -0.000000 -0.000005 4.570446 11.014691 -2.160851 -0.000018 0.000010 -0.000021 10.592394 -0.524477 -2.232354 73.700726 -11.250233 8.443668 27.841818 0.000090 -0.000206 96.563104 -70.591590 76.902630 28.328840 -0.000028 0.000025 0.000024 -0.000089 -0.000000 2.466017 -1.576162 2.681919 -37.655789 163.101461 -15.226495 3.217833 -1.871746 1.916372 158.495687 -29.311774 10.622178 2.656092 -1.528632 1.514446 139.980042 -27.826817 45.871100 2.020891 -1.154082 1.115138 0.000001 0.000007 0.000006 9.109374 -0.517856 2.259738 84.535264 -16.401538 14.913658 3.700037 0.000149 -0.000479 79.804176 -13.850347 11.612881 2.850039 0.000163 0.000192 77.327358 -11.957368 9.578678 2.774879 -0.000030 -0.000022 0.000000 0.000001 -0.000003 9.533463 0.000210 -0.000073 83.955388 -14.847865 13.364933 3.700036 0.000153 -0.000379 83.945108 -12.292892 11.063584 2.950063 0.000154 -0.000193 84.021203 -15.436058 13.922442 2.952869 -0.000015 0.000066 -0.000000 -0.000000 -0.000001 9.104590 -0.042851 -1.865226 83.318725 -13.791327 12.284125 3.150027 0.000201 -0.000098 86.440641 -11.704540 11.005281 2.950024 0.000151 -0.000070 88.543512 -13.476946 13.143377 2.644317 0.000046 0.000060 -0.000002 -0.000002 0.000000 8.077851 -0.486751 -3.806408 69.169025 -15.851735 11.377070 3.599995 0.000162 0.014563 69.872623 -12.752113 9.286493 2.100039 0.000152 0.007569 72.423549 -12.511256 9.537357 2.125501 -0.000014 0.007515 -0.000001 -0.000001 -0.000002 -8.207786 -6.751667 -1.599560 -0.077001 -0.000003 0.000080 -0.000002 -44.370110 0.345938 0.153719 -0.000000 -0.000000 0.000000 -44.423679 -3.043532 -0.076700 0.000000 -0.000002 -0.000006 -8.728667 10.710559 -0.000009 -0.000000 -0.000000 -0.000001 -0.000679 9.278123 0.000000 -0.000000 -0.000000 8.207792 -6.751710 -1.599556 -0.074518 -0.000003 0.000081 -0.000002 -44.370014 0.346960 0.148822 0.000002 0.000000 -0.000001 -44.423664 -3.044403 -0.074314 0.000000 -0.000002 -0.000004 -8.728671 10.710558 0.000007 -0.000000 -0.000000 0.000000 -0.000680 9.278137 -0.000000 0.000000 -0.000001 
0.000006 104.270477 1.554256 0.000010 0.000003 -0.000113 -0.000005 10.181587 0.131522 0.000001 -0.000003 0.000084 -0.000000 9.893967 -1.470711 0.000001 0.000000 -0.000000 -0.000000 9.220802 -1.370642 0.000000 -0.000000 -0.000000 0.000001 16.740433 -2.049030 0.000000 -0.000000 -0.000000 0.000000 9.617859 1.685014 0.000000 0.000000 0.000000 0.000002 22.037384 7.501101 0.000000 -0.000000 0.000000 -4.569968 11.014880 -2.160881 0.000008 0.000001 -0.000038 -10.592869 -0.524788 -2.231890 75.708767 34.516733 -27.148732 -27.841526 0.000001 0.000553 -52.568974 105.551448 66.056474 -28.328814 -0.000007 0.000028 -0.000321 -0.000046 0.000007 -2.464489 -1.573668 2.682274 -54.643320 -182.422345 -36.263117 -3.215300 -1.872595 1.924664 152.414592 29.766456 -6.890090 -2.654943 -1.527882 1.513069 144.096638 27.697797 -34.320819 -2.018818 -1.152018 1.108053 -0.000004 -0.000005 -0.000001 -9.108362 -0.517555 2.260084 92.577538 14.862044 -15.586055 -3.700056 0.000329 0.001475 91.270254 12.392438 -12.644252 -2.850074 0.000370 -0.000277 90.639226 10.329276 -10.443597 -2.772156 -0.000003 -0.000021 0.000002 -0.000002 0.000000 -9.532576 0.000274 0.000212 88.068616 14.809549 -14.459893 -3.700079 0.000327 0.003957 89.454216 12.373328 -12.162831 -2.950056 0.000319 -0.001835 90.916061 11.747190 -11.927940 -2.946637 0.000000 -0.000157 0.000002 -0.000001 -0.000001 -9.103695 -0.042764 -1.864904 83.942588 17.753914 -15.953305 -3.379349 0.000291 -0.000831 87.201565 11.853583 -11.309047 -2.889747 0.000343 0.000623 92.969250 8.049211 -8.524672 -2.638812 -0.000028 0.000939 0.000001 0.000001 0.000001 -8.076745 -0.486400 -3.806076 72.996513 17.906396 -13.183347 -3.600050 0.000240 -0.003571 76.412919 10.753769 -8.183811 -2.100032 0.000305 -0.005503 81.437739 7.166837 -5.977343 -2.115783 -0.000040 -0.003679 0.000001 0.000003 -0.000007 4.570446 11.014691 -2.160851 -0.000018 0.000010 -0.000021 10.592395 -0.524484 -2.232358 73.288005 -10.818501 8.058214 27.841825 0.000053 -0.000211 99.782336 -73.493211 83.107058 28.328823 -0.000029 0.000025 0.000023 -0.000089 0.000000 2.466219 -1.576097 2.681839 -4.997052 168.774029 -85.714824 3.217872 -1.871846 1.916419 163.727694 -21.638248 41.659141 2.656087 -1.528679 1.514489 142.152656 -26.497376 57.776570 2.020895 -1.154064 1.115145 -0.000000 0.000000 0.000001 9.109366 -0.517868 2.259741 82.345491 -18.728719 16.403075 3.700047 0.000156 -0.000467 79.731728 -12.148119 10.170681 2.850042 0.000171 0.000218 78.519834 -9.168080 7.497562 2.774887 -0.000030 -0.000027 -0.000000 -0.000001 0.000000 9.533444 0.000194 -0.000102 80.972972 -16.905234 14.452229 3.700039 0.000171 -0.000378 84.186842 -9.377842 8.472712 2.950039 0.000163 -0.000209 84.711968 -10.025731 9.147173 2.952881 -0.000031 0.000064 -0.000002 -0.000001 0.000000 9.104572 -0.042864 -1.865212 80.039667 -16.206126 13.636517 3.150051 0.000192 -0.000097 85.978155 -10.605470 9.891342 2.950047 0.000184 -0.000095 87.156916 -9.892321 9.417085 2.644317 0.000016 0.000055 0.000001 0.000000 0.000000 8.077830 -0.486755 -3.806402 69.692464 -18.787479 13.569474 3.599996 0.000138 0.014575 70.968541 -15.738871 11.634506 2.100037 0.000155 0.007541 72.676703 -12.040594 9.231147 2.125494 0.000001 0.007518 -0.000001 0.000002 0.000004 -8.207786 -6.751667 -1.599560 -0.077001 -0.000003 0.000080 -0.000002 -44.370110 0.345938 0.153719 -0.000000 -0.000000 0.000000 -44.423679 -3.043532 -0.076700 0.000000 -0.000002 -0.000006 -8.728667 10.710559 -0.000009 -0.000000 -0.000000 -0.000001 -0.000679 9.278123 0.000000 -0.000000 -0.000000 8.207792 -6.751710 -1.599556 -0.074518 -0.000003 0.000081 -0.000002 -44.370014 0.346960 0.148822 0.000002 0.000000 -0.000001 -44.423664 -3.044403 -0.074314 0.000000 -0.000002 -0.000004 -8.728671 10.710558 0.000007 -0.000000 -0.000000 0.000000 -0.000680 9.278137 -0.000000 0.000000 -0.000001 
0.000006 104.270477 1.554256 0.000010 0.000003 -0.000113 -0.000005 10.181587 0.131522 0.000001 -0.000003 0.000084 -0.000000 9.893967 -1.470711 0.000001 0.000000 -0.000000 -0.000000 9.220802 -1.370642 0.000000 -0.000000 -0.000000 0.000001 16.740433 -2.049030 0.000000 -0.000000 -0.000000 0.000000 9.617859 1.685014 0.000000 0.000000 0.000000 0.000002 22.037384 7.501101 0.000000 -0.000000 0.000000 -4.569968 11.014880 -2.160881 0.000008 0.000001 -0.000038 -10.592867 -0.524779 -2.231876 75.124738 33.279701 -25.889081 -27.841518 0.000018 0.000564 -50.230290 104.022975 61.946729 -28.328808 0.000008 0.000027 -0.000324 -0.000041 0.000002 -2.464545 -1.573618 2.682258 -55.718685 -190.492787 -51.097045 -3.215293 -1.872643 1.924672 150.017947 28.487858 -16.058844 -2.654978 -1.527860 1.513068 141.862974 28.209269 -31.934621 -2.018834 -1.152014 1.108065 -0.000003 -0.000001 0.000002 -9.108364 -0.517546 2.260100 93.492367 13.846196 -14.756064 -3.700061 0.000319 0.001504 91.163293 11.734545 -11.949965 -2.850071 0.000359 -0.000301 89.608394 9.708177 -9.641455 -2.772159 0.000001 -0.000021 -0.000000 -0.000001 -0.000002 -9.532572 0.000272 0.000207 88.158420 13.506360 -13.217324 -3.700075 0.000310 0.003942 88.570143 11.998096 -11.612147 -2.950049 0.000343 -0.001854 88.762318 11.202405 -10.957538 -2.946640 0.000004 -0.000155 0.000000 -0.000001 -0.000000 -9.103697 -0.042751 -1.864903 83.640004 16.264506 -14.531996 -3.379340 0.000309 -0.000822 88.003996 12.541465 -12.132599 -2.889742 0.000331 0.000635 93.141780 8.773185 -9.315108 -2.638817 -0.000017 0.000939 -0.000002 -0.000000 0.000000 -8.076745 -0.486410 -3.806093 72.025110 16.272791 -11.754970 -3.600060 0.000246 -0.003580 74.435429 10.790036 -7.925098 -2.100023 0.000298 -0.005529 80.032462 7.247407 -5.898301 -2.115788 -0.000042 -0.003678 0.000001 -0.000000 -0.000005 4.570446 11.014691 -2.160851 -0.000018 0.000010 -0.000021 10.592402 -0.524474 -2.232369 72.888357 -14.393362 10.654387 27.841818 0.000047 -0.000179 101.600444 -74.803282 86.305137 28.328840 -0.000029 0.000025 0.000020 -0.000088 -0.000000 2.466216 -1.576118 2.681849 -7.551425 167.277862 -80.064734 3.217880 -1.871853 1.916423 162.079091 -21.406839 44.218293 2.656112 -1.528665 1.514475 140.623596 -27.082965 57.558694 2.020884 -1.154082 1.115157 -0.000004 0.000005 0.000002 9.109385 -0.517868 2.259734 82.404716 -18.628438 16.331628 3.700031 0.000153 -0.000463 81.747242 -12.491976 10.836197 2.850037 0.000178 0.000201 80.491109 -9.332066 7.902824 2.774880 -0.000016 -0.000023 -0.000001 0.000000 -0.000000 9.533468 0.000187 -0.000099 81.920333 -17.422377 15.144625 3.700025 0.000192 -0.000372 85.244634 -9.711422 8.937978 2.950037 0.000177 -0.000215 85.181215 -9.809851 9.023685 2.952880 -0.000031 0.000065 0.000001 -0.000000 0.000000 9.104591 -0.042864 -1.865220 80.759467 -16.793014 14.311696 3.150049 0.000198 -0.000099 86.542902 -11.231286 10.578813 2.950023 0.000185 -0.000100 87.350046 -9.803873 9.364264 2.644317 0.000030 0.000054 -0.000001 -0.000001 0.000000 8.077847 -0.486742 -3.806394 71.467104 -19.371608 14.445456 3.600006 0.000161 0.014570 71.866991 -16.612063 12.469448 2.100030 0.000158 0.007545 73.123787 -12.176223 9.408047 2.125492 -0.000017 0.007519 0.000002 0.000001 -0.000002 -8.207786 -6.751667 -1.599560 -0.077001 -0.000003 0.000080 -0.000002 -44.370110 0.345938 0.153719 -0.000000 -0.000000 0.000000 -44.423679 -3.043532 -0.076700 0.000000 -0.000002 -0.000006 -8.728667 10.710559 -0.000009 -0.000000 -0.000000 -0.000001 -0.000679 9.278123 0.000000 -0.000000 -0.000000 8.207792 -6.751710 -1.599556 -0.074518 -0.000003 0.000081 -0.000002 -44.370014 0.346960 0.148822 0.000002 0.000000 -0.000001 -44.423664 -3.044403 -0.074314 0.000000 -0.000002 -0.000004 -8.728671 10.710558 0.000007 -0.000000 -0.000000 0.000000 -0.000680 9.278137 -0.000000 0.000000 -0.000001 
